<?xml version="1.0" encoding="iso-8859-1"?>
<!-- Uploaded to: SVG Repo, www.svgrepo.com, Generator: SVG Repo Mixer Tools -->
<!DOCTYPE svg PUBLIC "-//W3C//DTD SVG 1.1//EN" "http://www.w3.org/Graphics/SVG/1.1/DTD/svg11.dtd">
<svg fill="#000000" version="1.1" id="Capa_1" xmlns="http://www.w3.org/2000/svg" xmlns:xlink="http://www.w3.org/1999/xlink" 
	 width="800px" height="800px" viewBox="0 0 403.647 403.647"
	 xml:space="preserve">
<g>
	<g>
		<path d="M124.149,306.024c9.399,13.524,17.334,19.823,24.969,19.823c2.879,0,9.97-1.094,13.638-11.241
			c3.023-8.362,5.729-17.91,8.592-28.019c6.969-24.6,16.515-58.291,29.998-58.291h0.957c5.804,0,11.184,5.359,16.446,16.385
			c5.529,11.578,9.77,27.111,13.87,42.135c2.742,10.044,5.332,19.531,8.265,27.757c3.599,10.101,10.627,11.194,13.486,11.196
			c7.606,0,15.537-6.395,24.954-20.122c7.482-10.905,15.357-25.708,22.777-42.808c16.646-38.359,26.584-77.285,26.584-104.125
			c0-19.684-6.971-38.33-19.631-52.505c-13.352-14.946-31.728-23.178-51.744-23.178c-15.719,0-32.351,9.175-44.498,15.876
			c-3.248,1.793-9.15,5.05-10.985,5.578c-1.851-0.534-7.712-3.777-10.94-5.564c-12.121-6.706-28.719-15.89-44.549-15.89
			c-20.017,0-38.393,8.232-51.743,23.178c-12.661,14.175-19.634,32.822-19.634,52.505c0,27.63,9.888,66.849,26.451,104.91
			C108.791,280.576,116.653,295.237,124.149,306.024z M146.338,97.6c9.202,0,21.379,4.246,32.571,11.358
			c1.614,1.026,3.964,2.833,6.237,4.581c0.918,0.705,1.822,1.4,2.667,2.036c2.756,2.064,6.479,4.762,10.846,7.33
			c2.31,1.365,4.414,2.576,6.778,3.579c9.515,4.04,19.603,6.087,29.981,6.087c10.612,0,15.996-1.187,18.013-1.667
			c3.782-0.902,12.638-3.308,12.465-4.616c-0.153-1.155-9.903-0.581-13.196-0.866c-3.82-0.332-15.516-1.051-29.567-4.772
			c-4.219-1.118-9.933-3.373-10.19-4.619c-0.195-0.941,3.885-3.556,6.989-5.46c10.873-6.671,25.408-12.97,37.378-12.97
			c35.56,0,56.81,31.074,56.81,61.116c0,24.573-9.726,62.249-25.38,98.327c-6.959,16.034-14.567,30.37-21.427,40.365
			c-6.63,9.663-10.519,13.98-12.212,13.458c-0.32-0.099-0.744-0.554-0.919-1.046c-2.734-7.67-4.826-17.008-7.51-26.84
			c-4.271-15.641-8.686-31.812-14.777-44.574c-7.928-16.604-17.608-24.675-29.592-24.675h-0.957
			c-11.576,0-21.045,8.008-28.948,24.481c-6.066,12.643-10.638,28.781-15.079,44.455c-2.786,9.836-4.879,19.043-7.72,26.902
			c-0.203,0.561-0.771,1.307-1.126,1.421c-1.676,0.536-5.612-3.569-12.361-13.278c-6.862-9.875-14.441-24.045-21.342-39.899
			c-15.569-35.777-25.241-73.748-25.241-99.097C89.528,128.673,110.778,97.6,146.338,97.6z"/>
		<path d="M397.808,142.451c0,0-11.247,3.112-14.979,4.207c-1.688,0.495-1.813-0.472-1.813-0.472
			c-8.279-36.051-26.914-68.029-54.498-93.572C292.13,20.772,247.367,3.236,200.473,3.236c-46.972,0-91.79,17.587-126.199,49.521
			C40.052,84.518,19.179,127.55,15.5,173.929c-0.437,5.506,3.672,10.323,9.178,10.76c0.269,0.021,0.537,0.032,0.802,0.032
			c5.164,0,9.542-3.973,9.958-9.209c6.774-85.388,79.267-152.275,165.036-152.275c77.828,0,144.605,54.257,161.324,128.329
			c0,0,0.354,0.88-0.401,1.112c-5.027,1.548-20.255,5.688-20.255,5.688c-4.48,1.258-5.213,4.715-1.628,7.681l38.234,31.643
			c3.586,2.966,7.76,1.794,9.275-2.605l16.172-46.92C404.712,143.764,402.288,141.194,397.808,142.451z"/>
		<path d="M379.694,218.959c-5.513-0.44-10.322,3.672-10.76,9.178c-6.774,85.389-79.267,152.274-165.035,152.274
			c-77.855,0-144.633-54.208-161.321-128.317c0,0-0.23-1.024,0.54-1.246c5.72-1.647,19.389-5.444,19.389-5.444
			c4.481-1.258,5.213-4.715,1.628-7.683L25.9,206.08c-3.585-2.967-7.758-1.795-9.275,2.604l-16.173,46.92
			c-1.517,4.397,0.909,6.969,5.388,5.711c0,0,10.842-3.06,16.504-4.634c0.689-0.192,0.99,1.078,0.99,1.078
			c8.269,36.082,26.917,67.713,54.521,93.274c34.388,31.841,79.15,49.377,126.043,49.377c46.972,0,91.79-17.586,126.198-49.52
			c34.223-31.761,55.095-74.793,58.773-121.173C389.309,224.213,385.199,219.396,379.694,218.959z"/>
	</g>
</g>
</svg>