<?xml version="1.0" encoding="UTF-8"?>
<svg xmlns="http://www.w3.org/2000/svg" width="865.76" height="682.89" viewBox="0 0 865.76 682.89">
  <rect x="75.08" y="31.8" width="167.29" height="185.63" fill="#fcd2d9"></rect>
  <path d="M203,560.47l-6-5.25s-53,27-46.69,63.85a10.47,10.47,0,1,0,7-9.84h0S161.75,576.8,203,560.47Z" fill="#9ea0a3"></path>
  <path d="M212.47,556.42,197,555.22l-11.12,2.9S129,578.37,135.07,620.33a10.47,10.47,0,1,0,7.57-10s9.58-40.74,58.8-50.27c0,0,30.49,7.94,35.89,21.28V565.75S221.59,559.79,212.47,556.42Z" fill="#e1e1e2"></path>
  <path d="M135.13,400.74H240.84a0,0,0,0,1,0,0v25a0,0,0,0,1,0,0H125.24a0,0,0,0,1,0,0V410.63A9.88,9.88,0,0,1,135.13,400.74Z" fill="#fcd2d9"></path>
  <path d="M135.13,425.79h96.54a9.18,9.18,0,0,1,9.18,9.18v15.83a0,0,0,0,1,0,0H125.24a0,0,0,0,1,0,0V435.67A9.88,9.88,0,0,1,135.13,425.79Z" transform="translate(366.08 876.57) rotate(180)" fill="#e1e1e2"></path>
  <path d="M176,450.43h38.29a0,0,0,0,1,0,0v33.93a4.36,4.36,0,0,1-4.36,4.36H180.39a4.36,4.36,0,0,1-4.36-4.36V450.43A0,0,0,0,1,176,450.43Z" fill="#9ea0a3"></path>
  <rect x="188.1" y="488.72" width="14.93" height="62.1" fill="#e1e1e2"></rect>
  <rect x="177.94" y="546.06" width="34.9" height="12.07" rx="2.53" fill="#fcd2d9"></rect>
  <path d="M537.92,202.59l-7.61,44.54a19.41,19.41,0,0,1-19.13,16.12H456.3A10.33,10.33,0,0,1,446,251.94c1.41-14.95,6.68-41.24,25.88-57a15,15,0,0,1,9.58-3.36l47.32.16A9.3,9.3,0,0,1,537.92,202.59Z" fill="#3f4347"></path>
  <polygon points="239.57 499 217.22 622.39 302.24 622.39 329.04 497.24 326.59 461.12 303.84 449.55 239.57 499" fill="#2f2e41"></polygon>
  <g opacity="0.2">
    <polygon points="239.57 499 232.88 535.97 325.34 514.51 329.04 497.24 326.59 461.12 303.84 449.55 239.57 499"></polygon>
  </g>
  <path d="M299.66,209.49s-24.1-3.25-37.19,22.11l-22.9,43.62s-18.54,33,13.9,39.54c0,0-20.17,30-22.08,79.35l-4.09,79.34s-1.64,10.36-4.64,21.54c0,0-.82,4.09,28.09,4.36h67.07s-.27-22.35-1.63-32.72c0,0,7.63,17.73,7.9,30.82L350,496.36s-8.73-69.26-14.73-96.8c0,0-8.72-59.44-10.09-78.26,0,0-10.2-13.61-.54-31.08,0,0,9.77,0,17.86-4.1A18,18,0,0,0,352.18,270v-2.1s20.52,23.87,41.88,33.73a24,24,0,0,0,20.39-.16,66.73,66.73,0,0,0,16-11.29,91.93,91.93,0,0,0,18.72-24.58L460,245l-21-12.21-35.61,33.58-36.57-32.56s-15.41-16-33-19.19Z" fill="#fcd2d9"></path>
  <g opacity="0.5">
    <path d="M299.66,209.49s-24.1-3.25-37.19,22.11l-22.9,43.62s-18.54,33,13.9,39.54c0,0-20.17,30-22.08,79.35l-4.09,79.34s-1.64,10.36-4.64,21.54c0,0-.82,4.09,28.09,4.36h67.07s-.27-22.35-1.63-32.72c0,0,7.63,17.73,7.9,30.82L350,496.36s-8.73-69.26-14.73-96.8c0,0-8.72-59.44-10.09-78.26,0,0-10.2-13.61-.54-31.08,0,0,9.77,0,17.86-4.1A18,18,0,0,0,352.18,270v-2.1s20.52,23.87,41.88,33.73a24,24,0,0,0,20.39-.16,66.73,66.73,0,0,0,16-11.29,91.93,91.93,0,0,0,18.72-24.58L460,245l-21-12.21-35.61,33.58-36.57-32.56s-15.41-16-33-19.19Z" fill="#fff"></path>
  </g>
  <path d="M324.64,290.22s16-.25,22.93-8c0,0,3.39,5.86-5.39,10.88,0,0-1,1.26,6,3.59,0,0,24.08,6.45,23.54,9.85a12.35,12.35,0,0,1-5.74,2s-15.13,14.52-45.66,0C320.36,308.5,318.57,300.09,324.64,290.22Z" fill="#f9b499"></path>
  <path d="M366,309H366l-15.42-2.33a.5.5,0,0,1,.15-1L366.1,308a.5.5,0,0,1-.08,1Z" fill="#f7a48b"></path>
  <g opacity="0.2">
    <path d="M324.79,287.13l-.12,0-68.84-17.56a.52.52,0,0,1-.36-.61.49.49,0,0,1,.61-.36l68.84,17.56a.5.5,0,0,1-.13,1Z"></path>
  </g>
  <g opacity="0.2">
    <path d="M279.3,275.52l-.18,0a.5.5,0,0,1-.29-.65c3.19-8.57,3.87-23.22,3.88-23.37a.5.5,0,1,1,1,0c0,.15-.68,15-3.93,23.68A.52.52,0,0,1,279.3,275.52Z"></path>
  </g>
  <g opacity="0.2">
    <path d="M280.16,272.84a.54.54,0,0,1-.21,0l-14.53-6.86a.5.5,0,0,1,.43-.91l14.53,6.87a.5.5,0,0,1-.22.95Z"></path>
  </g>
  <g opacity="0.2">
    <path d="M284.1,239.62a.51.51,0,0,1-.5-.45,32.69,32.69,0,0,0-11-19.67.5.5,0,1,1,.65-.76,33.72,33.72,0,0,1,11.37,20.34.49.49,0,0,1-.45.54Z"></path>
  </g>
  <g opacity="0.2">
    <path d="M335.88,252a.51.51,0,0,1-.4-.2l-8.27-11c-3.21,4.45-11.69,10.79-12.07,11.06a.49.49,0,0,1-.47.07.5.5,0,0,1-.31-.35c-4.66-19.34-27.72-40.22-27.95-40.43a.49.49,0,0,1,0-.7.5.5,0,0,1,.71,0c.23.21,22.94,20.77,28.06,40.2,2.13-1.63,9.3-7.27,11.62-10.94a.54.54,0,0,1,.4-.23.5.5,0,0,1,.42.2l8.13,10.76c1.55-4.66,8.61-26,9.14-32a.5.5,0,0,1,.54-.45.49.49,0,0,1,.45.54c-.6,6.77-9.12,32.05-9.49,33.12a.49.49,0,0,1-.39.34Z"></path>
  </g>
  <g opacity="0.2">
    <path d="M322.1,278.34H322a.51.51,0,0,1-.35-.62c.06-.19,5.3-19.25,5.06-37.73a.51.51,0,0,1,.5-.51.5.5,0,0,1,.5.49c.24,18.63-5,37.83-5.09,38A.51.51,0,0,1,322.1,278.34Z"></path>
  </g>
  <g opacity="0.2">
    <path d="M353.17,239.62h0a.49.49,0,0,1-.46-.53c.46-7,.93-15.55.93-15.63a.48.48,0,0,1,.53-.47.5.5,0,0,1,.47.52c0,.09-.47,8.67-.93,15.65A.5.5,0,0,1,353.17,239.62Z"></path>
  </g>
  <g opacity="0.2">
    <path d="M347.57,282.7a.49.49,0,0,1-.35-.14.5.5,0,0,1,0-.7c5.11-5.26,4.48-13.87,4.47-14,.26-8.79,1.89-13,2-13.16a.49.49,0,0,1,.64-.28.48.48,0,0,1,.28.64c0,.05-1.63,4.24-1.88,12.78,0,.31.68,9.09-4.75,14.67A.51.51,0,0,1,347.57,282.7Z"></path>
  </g>
  <g opacity="0.2">
    <path d="M262.33,622.89h-.09a.51.51,0,0,1-.41-.58l16.82-97.15a.5.5,0,1,1,1,.17l-16.82,97.15A.51.51,0,0,1,262.33,622.89Z"></path>
  </g>
  <path d="M375.48,398.4H508.36a37,37,0,0,0,36.19-29.5l14.83-72A18.21,18.21,0,0,0,541.54,275H429.43a15.62,15.62,0,0,0-9.85,3.48C406.51,289.1,371.08,324.89,375.48,398.4Z" fill="#3f4347"></path>
  <path d="M316,189.32s-3.63,13.39-16.33,20.17c0,0,23.08,13.12,27.52,30.48l8.7-33.26Z" fill="#f9b499"></path>
  <path d="M335.88,206.71l-3.24,12.41s-17.41-6.56-16.65-29.8Z" fill="#f7a48b"></path>
  <path d="M316,189.32s-9.76,12.23-21.26,2.35c0,0-8-7.25,2.25-13.62,0,0,.21-12.59,15.92-7.36l5.76,9.64,1.51,7.09Z" fill="#2f2e41"></path>
  <rect x="321.76" y="151.59" width="37.02" height="57.03" rx="14.75" transform="translate(167.63 -164.01) rotate(35.46)" fill="#f9b499"></rect>
  <path d="M315.24,168.22s-2.11-7.77,3.42-9.79h14.78s13.27-8.6,23.33,2.38l.32-.14a6.9,6.9,0,0,1,9.48,5.28c.77,4.57.15,12.41-8.78,21.47,0,0,3.7-11.44.08-20.18,0,0-1.1-5.46-15.19,0,0,0-9.33,4-12.26,1.44,0,0,.55,4.76-5.22,5.86Z" fill="#2f2e41"></path>
  <path d="M318.66,158.43a71.09,71.09,0,0,1,6.12-13.56,9.5,9.5,0,0,1,8.43-4.59l21.49.73a9.39,9.39,0,0,1,9,7.8,45.69,45.69,0,0,1,0,12.55,6.72,6.72,0,0,0-6.9-.55s-7.7-10.74-23.33-2.38Z" fill="#fcd2d9"></path>
  <g opacity="0.5">
    <path d="M318.66,158.43a71.09,71.09,0,0,1,6.12-13.56,9.5,9.5,0,0,1,8.43-4.59l21.49.73a9.39,9.39,0,0,1,9,7.8,45.69,45.69,0,0,1,0,12.55,6.72,6.72,0,0,0-6.9-.55s-7.7-10.74-23.33-2.38Z" fill="#fff"></path>
  </g>
  <g opacity="0.2">
    <path d="M363.24,154.8H321a.5.5,0,0,1,0-1h42.23a.5.5,0,0,1,0,1Z"></path>
  </g>
  <path d="M312.9,171.19a.5.5,0,0,1-.39-.18c-.24-.3-5.86-7.06-17.12-3.29a.5.5,0,0,1-.32-.95c11.95-4,18.15,3.53,18.22,3.61a.5.5,0,0,1-.08.7A.45.45,0,0,1,312.9,171.19Z" fill="#2f2e41"></path>
  <circle cx="318.66" cy="173.79" r="6.54" fill="#f9b499"></circle>
  <g opacity="0.2">
    <path d="M392.51,272.84a.49.49,0,0,1-.44-.26.49.49,0,0,1,.19-.68L403.14,266a.5.5,0,0,1,.48.88l-10.88,5.95A.46.46,0,0,1,392.51,272.84Z"></path>
  </g>
  <path d="M516,387.75l-.12,0a.5.5,0,0,1-.36-.61L542.28,286.5a.5.5,0,0,1,.61-.36.51.51,0,0,1,.36.62L516.52,387.38A.5.5,0,0,1,516,387.75Z" fill="#fff"></path>
  <path d="M325.18,321.3s6.32-.44,6.37-8.5a77.2,77.2,0,0,1-11.19-4.3A22.29,22.29,0,0,0,325.18,321.3Z" fill="#fcd2d9"></path>
  <g opacity="0.6">
    <path d="M325.18,321.3s6.32-.44,6.37-8.5a77.2,77.2,0,0,1-11.19-4.3A22.29,22.29,0,0,0,325.18,321.3Z" fill="#fff"></path>
  </g>
  <g opacity="0.2">
    <path d="M253.47,314.76,321,319.7a.14.14,0,0,1,0,.27,463.71,463.71,0,0,1-72.55,3.79S251.17,318.33,253.47,314.76Z"></path>
  </g>
  <polygon points="222.66 622.39 222.66 629.97 238.77 634.76 242.37 622.39 222.66 622.39" fill="#f9b499"></polygon>
  <path d="M219.16,644.55s-1.53-20.53,6.29-16l13.32,6.19v9.79Z" fill="#fcd2d9"></path>
  <rect x="212.85" y="644.55" width="218.95" height="6.54" fill="#e1e1e2"></rect>
  <path d="M424.58,644.55,396,581.4l20.22-38.18H405.65l46.85-77.33h-1.93s-15.4,23.42-36.26,24.06l-70.27.64-35,52.63-13.48-.65-51.66,34.34-24.77,67.64Z" fill="#e1e1e2"></path>
  <path d="M385.11,578.69H262.32a.5.5,0,1,1,0-1H385.11a.5.5,0,0,1,0,1Z" fill="#9ea0a3"></path>
  <path d="M344,490.59l2.25-3.53h53.07A20.27,20.27,0,0,0,415.58,479L447,437l69,35.61L463.36,559.1s71.52,65.51,90.34,85.45h6.73v6.54H431.8v-6.54h-7.22L396,581.4l20.22-38.18H405.65l46.85-77.33h-1.93s-14.7,22.93-36.26,24.06Z" fill="#2e3135"></path>
  <g opacity="0.2">
    <path d="M452.5,465.89s-3.88,54.3,32.1,58.33l-5.69,9.34s-28.46-6.73-29-41.5l.59-22.89Z"></path>
  </g>
  <path d="M480,509.94a.52.52,0,0,1-.21,0c-4.23-1.9-6.14-4.22-7-5.83a6.53,6.53,0,0,1-.73-3c-.11-7.1,7.7-9.84,7.78-9.87a.5.5,0,0,1,.32.95c-.07,0-7.2,2.54-7.1,8.9a5.5,5.5,0,0,0,.61,2.53c.79,1.48,2.55,3.61,6.53,5.39a.51.51,0,0,1,.26.66A.52.52,0,0,1,480,509.94Z" fill="#fff"></path>
  <g opacity="0.2">
    <polygon points="511.86 479.46 442.13 443.56 447.04 437.01 516.03 472.62 511.86 479.46"></polygon>
  </g>
  <g opacity="0.2">
    <path d="M452.23,644.55l-20.71-42.4a52.51,52.51,0,0,1-4.59-13.86c-1.39-8-1.17-18,8.33-19.43,0,0-18.18-2.3-14.79,17.74a38,38,0,0,0,3,9.57l22.27,48.38Z"></path>
  </g>
  <path d="M463.36,559.6a.57.57,0,0,1-.28-.08c-.19-.13-19.89-12.84-43.11-16.89a.5.5,0,0,1-.41-.58.49.49,0,0,1,.58-.4c23.43,4.08,43.29,16.9,43.49,17a.5.5,0,0,1,.15.69A.51.51,0,0,1,463.36,559.6Z" fill="#fff"></path>
  <path d="M447,437,415.58,479a19.5,19.5,0,0,1-16.22,8.11l-181.18-.27a5.71,5.71,0,0,1-4.32-9.44l42.6-49.54a50.93,50.93,0,0,1,36.15-17.67l65.7-3.23,74.77,4.43s14.41-3.36,30.82,7.13l69.56,40.86a10.16,10.16,0,0,1,4.39,12.29h0a10.16,10.16,0,0,1-14.26,5.49Z" fill="#3f4347"></path>
  <path d="M499.71,355.34h0a2.83,2.83,0,0,1-2.83-2.83V344.2a2.83,2.83,0,0,1,2.83-2.83h38.43a4.62,4.62,0,0,1,4.62,4.63v11.91a3.47,3.47,0,0,1-3.47,3.48h0a12.42,12.42,0,0,0-10.88-6.05Z" fill="#9ea0a3"></path>
  <path d="M513.88,252h0a.5.5,0,0,1-.48-.52c1.07-28,10.06-42.25,10.15-42.39a.5.5,0,0,1,.84.54c-.09.14-8.93,14.19-10,41.89A.5.5,0,0,1,513.88,252Z" fill="#fff"></path>
  <path d="M389.07,472.74H240.84a.5.5,0,0,1,0-1H389.07A17.6,17.6,0,0,0,403,465l34.56-44.06a.52.52,0,0,1,.71-.08.5.5,0,0,1,.08.7l-34.56,44.06A18.62,18.62,0,0,1,389.07,472.74Z" fill="#fff"></path>
  <path d="M466.58,299.11a35.46,35.46,0,0,0-29.25,17.55l-12.68,21.8L412,329.83s-6.74,12.2-16.25,15L413,367.4,496,393.56s6.4-7.72,5.18-24.37a8.45,8.45,0,0,1-1.47-4.12v-9.73a2.73,2.73,0,0,1-2.83-2.83V344.2s-.07-2.22,2.83-2.83h37.73s16.77-3.61,9.57-20.56a16.47,16.47,0,0,0-4.6-6.25c-4-3.37-12.68-9.11-27.16-12.25a15.74,15.74,0,0,1-4.9-1.58,12.7,12.7,0,0,1-2.51-1.66c-.78-.63-3.4-1.89-13.15-.93L486,305.81l-18-2Z" fill="#fcd2d9"></path>
  <path d="M402.58,370s-41.55-10.08-53.42,8.63c0,0-19.92,22.86-29.27,46.6,0,0,23.69,2.51,38.26,17.08L367,428.66s-4.68-4.86,1.25-6.66c0,0,15.29-3.78,36,16.91l23.93-27.86,4.95.29s12.77-3.47,30.82,7.13l22.12,13s15.72-2.71,14.11-21.74a35.73,35.73,0,0,0-21.37-29.37,153.58,153.58,0,0,0-26.83-8.68S413.88,358.24,402.58,370Z" fill="#2f2e41"></path>
  <g opacity="0.2">
    <path d="M349.52,435.44S389.13,377,402.58,370c0,0-18.44,15.72-34.36,52,0,0-5.87,1.61-1.25,6.66l-8.82,13.67A45.08,45.08,0,0,0,349.52,435.44Z"></path>
  </g>
  <path d="M386.53,425.75S385,430.1,377,434.16c0,0-3.76-2-10-5.5,0,0-3.89-3.76-.28-6.13a6.29,6.29,0,0,1,3.13-.94C372.5,421.45,378.61,421.72,386.53,425.75Z" fill="#2f2e41"></path>
  <g opacity="0.4">
    <path d="M386.53,425.75S385,430.1,377,434.16c0,0-3.76-2-10-5.5,0,0-3.89-3.76-.28-6.13a6.29,6.29,0,0,1,3.13-.94C372.5,421.45,378.61,421.72,386.53,425.75Z"></path>
  </g>
  <path d="M402.24,437l-10.36,10.71-11.19-6.55s4.79-6.16-.66-8.79c0,0,5.57-4.42,6.5-6.63A52,52,0,0,1,402.24,437Z" fill="#f9b499"></path>
  <path d="M303.45,432.33a8.13,8.13,0,0,0-5.12,6.56s33.84,2.14,45.37,21.25c0,0,3.16-2.83,2.82-6.67C346.52,453.47,340.87,438.88,303.45,432.33Z" fill="#fff"></path>
  <path d="M298.33,438.89s-7.78,11,22.75,16.16a26.55,26.55,0,0,1,8.71,3.85s8.25,6,13.91,1.24c0,0-4.75-9.77-21.26-15.85A94.05,94.05,0,0,0,298.33,438.89Z" fill="#2f2e41"></path>
  <path d="M318.93,425.7c-.75,1-.9,2.66,2.16,5.17l11.48,3.29,2.77-3.86v-1.82s-4.73-2.37-13.69-3.79A2.81,2.81,0,0,0,318.93,425.7Z" fill="#2f2e41"></path>
  <g opacity="0.2">
    <path d="M318.93,425.7c-.75,1-.9,2.66,2.16,5.17l11.48,3.29,2.77-3.86v-1.82s-4.73-2.37-13.69-3.79A2.81,2.81,0,0,0,318.93,425.7Z"></path>
  </g>
  <path d="M335.34,428.48v12.79l6.62,5,6.39-11.53S341.14,430.31,335.34,428.48Z" fill="#f9b499"></path>
  <g opacity="0.2">
    <path d="M506.93,327.16s1.64-4.07,7.73-2.4a15.17,15.17,0,0,1,4.28,2c3.08,2,8.67,6.4,7.06,11l-10-.81Z"></path>
  </g>
  <g opacity="0.2">
    <path d="M510.14,325.08a.52.52,0,0,1-.46-.29.5.5,0,0,1,.26-.66l19.26-8.53a.5.5,0,0,1,.66.25.5.5,0,0,1-.26.66L510.34,325A.45.45,0,0,1,510.14,325.08Z"></path>
  </g>
  <g opacity="0.2">
    <path d="M427.43,372.46h0a.49.49,0,0,1-.46-.53c1.68-21.38,11.19-43.28,11.28-43.5a.51.51,0,0,1,.66-.26.5.5,0,0,1,.26.66c-.09.22-9.54,22-11.21,43.18A.5.5,0,0,1,427.43,372.46Z"></path>
  </g>
  <path d="M396.17,338.8s-2.07,3.89-.46,6a15.66,15.66,0,0,0,6.44-3.43A37.69,37.69,0,0,1,396.17,338.8Z" fill="#fcd2d9"></path>
  <g opacity="0.2">
    <path d="M396.17,338.8s-2.07,3.89-.46,6a15.66,15.66,0,0,0,6.44-3.43A37.69,37.69,0,0,1,396.17,338.8Z"></path>
  </g>
  <path d="M450.07,266.24a.5.5,0,0,1-.49-.4c-.15-.75-3.74-18.39,7.4-25.4a.5.5,0,1,1,.53.85c-10.54,6.63-7,24.17-6.95,24.34a.5.5,0,0,1-.38.6Z" fill="#2f2e41"></path>
  <path d="M503.77,492.76H636.7a12.41,12.41,0,0,0,12.41-12.41V347.91h15.71V482.27a27.16,27.16,0,0,1-27.17,27.17h-144Z" fill="#2e3135"></path>
  <polygon points="640.18 353.14 670.42 316.06 706.9 316.06 706.9 353.14 640.18 353.14" fill="#9ea0a3"></polygon>
  <rect x="645.82" y="310.46" width="38.1" height="5.59" fill="#e1e1e2"></rect>
  <polygon points="685.39 311.93 639.13 311.93 656.8 285.93 700.99 285.93 685.39 311.93" fill="#fcd2d9"></polygon>
  <polygon points="685.39 311.93 690.7 311.93 705.97 285.93 700.99 285.93 685.39 311.93" fill="#9ea0a3"></polygon>
  <polygon points="690.02 292.32 681.66 307.52 664.02 307.52 672.84 292.32 690.02 292.32" fill="#fff"></polygon>
  <polygon points="656.34 292.32 666.74 292.32 664.87 295.31 653.96 295.31 656.34 292.32" fill="#fff"></polygon>
  <polygon points="652.79 298.43 663.19 298.43 661.33 301.42 650.42 301.42 652.79 298.43" fill="#fff"></polygon>
  <polygon points="649.95 304.44 660.35 304.44 658.48 307.44 647.57 307.44 649.95 304.44" fill="#fff"></polygon>
  <rect x="649.11" y="365.48" width="15.72" height="14.57" fill="#e1e1e2"></rect>
  <rect x="643.06" y="419.37" width="25.8" height="33.84" fill="#3f4347"></rect>
  <path d="M763.18,410.22a32.46,32.46,0,0,1-32.46,32.45H668.86V430.75h58.81a22.47,22.47,0,0,0,22.47-22.47V62a11,11,0,0,0-11-11H453.12a7.24,7.24,0,0,1-7.25-7.24h0a7.24,7.24,0,0,1,7.25-7.25h299.1a11,11,0,0,1,11,11Z" fill="#3f4347"></path>
  <path d="M600.29,544.91a2.15,2.15,0,0,1-1.57-.67c-22.15-22.63-9.48-184.27-8.93-191.14a.5.5,0,0,1,.54-.46.5.5,0,0,1,.46.54c-.14,1.68-13.19,168.06,8.64,190.37a1.2,1.2,0,0,0,1.21.31,1.23,1.23,0,0,0,.87-.93c1.75-8,7.33-38.77,5.83-95.93h0s-3.55-71-4.66-93.84a.5.5,0,0,1,.47-.52.48.48,0,0,1,.53.48C604.79,376,608.34,447,608.34,447c1.5,57.28-4.1,88.1-5.85,96.18a2.25,2.25,0,0,1-1.57,1.68A2.34,2.34,0,0,1,600.29,544.91Z" fill="#fcd2d9"></path>
  <path d="M604.66,567a2.86,2.86,0,0,1-2.63-1.7c-12.75-28.6-5.66-204.66-5.36-212.14a.5.5,0,1,1,1,0c-.07,1.83-7.38,183.3,5.28,211.69A1.85,1.85,0,0,0,604.8,566a1.88,1.88,0,0,0,1.71-1.37c3.34-11.42,11.2-45.12,12.16-111.38l-1.83-100.06a.5.5,0,0,1,.49-.51.46.46,0,0,1,.51.49l1.83,100.08c-1,66.39-8.85,100.2-12.2,111.66a2.91,2.91,0,0,1-2.6,2.09Z" fill="#fcd2d9"></path>
  <path d="M620.51,546.07h-.34a6.73,6.73,0,0,1-5.43-3.22c-8.82-14.41-9.53-54.09-9.55-55.77-7.45-75.33,7.61-132.28,7.76-132.85a.5.5,0,0,1,1,.26c-.16.57-15.17,57.35-7.74,132.53,0,.45.74,41.13,9.41,55.31a5.75,5.75,0,0,0,4.63,2.75,5.48,5.48,0,0,0,4.74-2.23c4.4-5.87,9.8-20.38,10.49-56.17a182.17,182.17,0,0,0-.62-18.74c-2-24.11-7.42-83.54-13.46-114.7a.5.5,0,0,1,.4-.58.49.49,0,0,1,.58.4c6,31.2,11.44,90.67,13.47,114.8a181.33,181.33,0,0,1,.63,18.84c-.69,36.06-6.2,50.77-10.69,56.75A6.48,6.48,0,0,1,620.51,546.07Z" fill="#fcd2d9"></path>
  <path d="M631,542.68a7.65,7.65,0,0,1-4.75-1.95c-6-4.85-13.18-19.94-13.18-64.27l-.14-123.32a.5.5,0,0,1,.5-.5h0a.5.5,0,0,1,.5.5l.14,123.32c0,46.1,8,59.53,12.74,63.44,2.58,2.11,4.51,1.76,4.59,1.75,36-7.28,4.46-186.61,4.14-188.42a.5.5,0,0,1,.4-.58.51.51,0,0,1,.58.4c1.33,7.43,32.06,182.11-4.92,189.58A3.68,3.68,0,0,1,631,542.68Z" fill="#fcd2d9"></path>
  <rect x="765.82" y="356.19" width="13.54" height="1.71" fill="#2f2e41"></rect>
  <polygon points="766.77 357.9 767.41 367.44 777.54 367.44 778.29 357.9 766.77 357.9" fill="#2f2e41"></polygon>
  <rect x="742.26" y="356.19" width="13.54" height="1.71" fill="#fcd2d9"></rect>
  <polygon points="743.22 357.9 743.86 367.44 753.99 367.44 754.73 357.9 743.22 357.9" fill="#fcd2d9"></polygon>
  <path d="M726.46,351.08v-3.52h-5.28v3.52h0a2.9,2.9,0,0,0-2.9,2.9v13.46h11.08V354a2.9,2.9,0,0,0-2.9-2.9Z" fill="#9ea0a3"></path>
  <rect x="719.66" y="343.72" width="8.19" height="3.84" rx="0.51" fill="#fcd2d9"></rect>
  <path d="M721,362.92a.25.25,0,0,1-.25-.25v-8.46a.25.25,0,0,1,.5,0v8.46A.25.25,0,0,1,721,362.92Z" fill="#fff"></path>
  <rect x="480.64" y="49.36" width="8.93" height="15.39" fill="#3f4347"></rect>
  <path d="M435.7,115.69S440,62.28,485.1,61.05c0,0,44.78-4.61,51.25,54.64Z" fill="#fcd2d9"></path>
  <g opacity="0.5">
    <path d="M451.4,92.45s30.47-15.08,68.94,0C520.34,92.45,485.25,44.12,451.4,92.45Z" fill="#fff"></path>
  </g>
  <path d="M467.43,291.65v4.43a5.7,5.7,0,0,1-2.26,4.58,19.53,19.53,0,0,1-9.67,3.71s17.18,22.23,45.68-4.12c0,0-10.67-1.42-11.65-8.6L488,281.23Z" fill="#f9b499"></path>
  <path d="M467.43,291.65v4.43a4.86,4.86,0,0,1-.85,3S480.82,303.82,486,285Z" fill="#f7a48b"></path>
  <path d="M453.82,284a9.93,9.93,0,0,0-1.25,7.17s-5.61,3.77-.32,11.56a36.15,36.15,0,0,1,14.33-3.62,5.8,5.8,0,0,0,.85-3v-2.83A19.71,19.71,0,0,1,453.82,284Z" fill="#2f2e41"></path>
  <rect x="454" y="238.33" width="38.5" height="55.7" rx="15.34" transform="translate(130.27 -154.75) rotate(21.47)" fill="#f9b499"></rect>
  <path d="M454.14,262.19s-4.15-7.83,1.06-18.14a16.6,16.6,0,0,1,9.57-8.49,9.67,9.67,0,0,1,8.48.8s12.29-4.81,18.76,6.24c0,0,14.55-.85,14.27,14.44,0,0-.43,15.67,6.23,24.19,0,0,11.3,13,3.52,21.26,0,0-5.38-.85-8.19-3.42,0,0-1.91-1.88-13.15-.93,0,0-4.53-2.18-5.16-6.49L488,281.23l3.41-8.68S476.94,261,469.81,250.28a11.22,11.22,0,0,0,4.57,9s-8.88-3-5.64-11.43C468.74,247.86,460.66,244.34,454.14,262.19Z" fill="#2f2e41"></path>
  <ellipse cx="491.43" cy="277.63" rx="7.71" ry="5.2" transform="translate(-28.25 497.88) rotate(-52.43)" fill="#f9b499"></ellipse>
  <path d="M402.15,341.37s-15.23-5.26-12.42-10.32c0,0-6.64-4.82-2.29-8.69a4.32,4.32,0,0,1-1.9-3.2,3.13,3.13,0,0,1,2.8-3.36c2.4-.28,7,.55,15.08,6.07a5.44,5.44,0,0,1,2.5-5.23,1.31,1.31,0,0,1,2,1.11v6.61s3.77,2.36,4,5.47C412,329.83,408.12,337.58,402.15,341.37Z" fill="#f9b499"></path>
  <path d="M395.71,330.33h-.08a.48.48,0,0,1-.41-.57c1.38-8.3,8.11-8.38,8.2-8.38h0a.5.5,0,0,1,0,1c-.24,0-6,.1-7.22,7.54A.49.49,0,0,1,395.71,330.33Z" fill="#f7a48b"></path>
  <path d="M511.23,327.79a7.2,7.2,0,0,0-9.41,3.33,26.75,26.75,0,0,0-2.11,7.63s-1.22,9.93,2.53,9.75c0,0,1.87.93,2.25-7.13,0,0,3.09-1.62,4.12,2.39a7.93,7.93,0,0,1,.19,1c.75,5.25.77,7.5,5.08,5.06,0,0,5.88.83,6.54-6.86a1.72,1.72,0,0,1,1.69-1.58h0a1.72,1.72,0,0,1,1.71,1.78,12.76,12.76,0,0,0,.18,3,1.35,1.35,0,0,0,2.38.58c.62-.84,1.1-2.38.8-5.21a10.62,10.62,0,0,0-4.51-7.56A68.43,68.43,0,0,0,511.23,327.79Z" fill="#f9b499"></path>
  <path d="M513.88,350.31h0a.5.5,0,0,1-.46-.54,30.28,30.28,0,0,0-1.22-9.68.51.51,0,0,1,.34-.62.5.5,0,0,1,.62.34,30.34,30.34,0,0,1,1.25,10A.49.49,0,0,1,513.88,350.31Z" fill="#f7a48b"></path>
  <path d="M336,430.55a10.58,10.58,0,0,0-6.9-.33,13.33,13.33,0,0,1-2.56.57,28.73,28.73,0,0,1-10.46-.78s-8.36-3.22-12.66,2.32c0,0,33.69,4.63,43.07,21.14a7.61,7.61,0,0,0,1.36-7.58l-11.19-6.55S341.48,433.18,336,430.55Z" fill="#fcd2d9"></path>
  <path d="M342.33,440.72s-7.78,11,22.75,16.16a26.46,26.46,0,0,1,8.71,3.85s8.25,6,13.91,1.24c0,0-4.75-9.77-21.26-15.85A94.05,94.05,0,0,0,342.33,440.72Z" fill="#2f2e41"></path>
  <path d="M380,432.38s-1.76-2-6.15-.6a18.62,18.62,0,0,1-4.6.94,27.46,27.46,0,0,1-9.17-.88s-8.36-3.22-12.66,2.32c0,0,33.69,4.63,43.07,21.14a7.61,7.61,0,0,0,1.36-7.58l-11.19-6.55S385.48,435,380,432.38Z" fill="#fcd2d9"></path>
  <path d="M347.45,434.16a8.13,8.13,0,0,0-5.12,6.56s33.84,2.14,45.37,21.25c0,0,3.16-2.83,2.82-6.67C390.52,455.3,384.87,440.71,347.45,434.16Z" fill="#fff"></path>
  <path d="M512.55,478.07h13.82s7.14.95,7.52-10.57V371.58H506.23a6.52,6.52,0,0,1-6.52-6.51v-9.73h28.7a12.84,12.84,0,0,1,12.84,12.84V469.45a17.61,17.61,0,0,1-17.61,17.61H507.23Z" fill="#e1e1e2"></path>
  <polygon points="665.03 372.53 670.42 367.44 790.68 367.44 790.68 373.79 671.88 373.79 665.03 379.44 665.03 372.53" fill="#e1e1e2"></polygon>
  <path d="M439,232.81s18.59-28.51,32.43-27.3c0,0,3.63.94-7.26,8.47,0,0-8.06,4.84-5.91,7.94,0,0,.94,1.74,5.65,0l3-1a.74.74,0,0,1,1,.87c-.36,1.33-1.86,3.64-7.37,6.34a13,13,0,0,0-3.88,2.86c-2.08,2.28-5.2,6.11-5.49,8.9Z" fill="#f9b499"></path>
  <ellipse cx="486.02" cy="115.69" rx="50.33" ry="15.54" fill="#e1e1e2"></ellipse>
  <ellipse cx="457.24" cy="116.3" rx="15.39" ry="4.16" fill="#fff"></ellipse>
  <ellipse cx="488.02" cy="107.99" rx="15.39" ry="4.16" fill="#fff"></ellipse>
  <ellipse cx="518.8" cy="116.3" rx="15.39" ry="4.16" fill="#fff"></ellipse>
  <ellipse cx="488.02" cy="124.61" rx="15.39" ry="4.16" fill="#fff"></ellipse>
  <path d="M578.53,307.27a.49.49,0,0,1-.46-.33l-4.51-12.24a8.87,8.87,0,0,1,2.84-10l.13-.1a.5.5,0,0,1,.59.81l-.1.07a7.88,7.88,0,0,0-2.52,8.88l4.5,12.23a.49.49,0,0,1-.29.64A.39.39,0,0,1,578.53,307.27Z" fill="#e1e1e2"></path>
  <path d="M591.88,308a.51.51,0,0,1-.48-.36l-4.3-15.2a.5.5,0,0,1,1-.28l4.31,15.21a.51.51,0,0,1-.35.62Z" fill="#e1e1e2"></path>
  <path d="M606.14,306.7a.51.51,0,0,1-.48-.35l-4.3-13.12a.5.5,0,0,1,.32-.63.49.49,0,0,1,.63.32l4.3,13.12a.49.49,0,0,1-.32.63Z" fill="#e1e1e2"></path>
  <polygon points="564.26 353.14 640.18 353.14 670.42 316.06 598.63 316.06 564.26 353.14" fill="#fcd2d9"></polygon>
  <g opacity="0.2">
    <polygon points="564.26 353.14 640.18 353.14 670.42 316.06 598.63 316.06 564.26 353.14"></polygon>
  </g>
  <polygon points="581.54 343.67 601.63 321.28 656.8 321.28 638.8 343.67 581.54 343.67" fill="#fff"></polygon>
  <polygon points="576.82 305.39 587.62 343.67 593.68 343.67 579.21 305.39 576.82 305.39" fill="#2f2e41"></polygon>
  <polygon points="590.29 305.44 601.09 343.72 607.14 343.72 592.68 305.44 590.29 305.44" fill="#2f2e41"></polygon>
  <polygon points="605.01 305.44 615.8 343.72 621.86 343.72 607.4 305.44 605.01 305.44" fill="#2f2e41"></polygon>
  <polygon points="619.17 305.22 630.03 343.72 636.11 343.72 621.57 305.22 619.17 305.22" fill="#2f2e41"></polygon>
  <polygon points="619.17 305.22 614.29 288.96 621.57 305.22 619.17 305.22" fill="#e1e1e2"></polygon>
  <path d="M725.82,566.33a351.42,351.42,0,0,0-.51-37.29,475.52,475.52,0,0,0-11.68-76c-3.26-14.05-7.27-27.88-11.46-41.68-.12-.43-.78-.3-.66.13C714.42,460.18,725,510.42,724.27,561c-.2,14.22-1.84,28.06-3.19,42.13,0,.39.58.53.67.15C724.45,591.31,725.32,578.69,725.82,566.33Z" fill="#fcd2d9"></path>
  <path d="M701.51,411.57S681.92,461.28,686.3,473s13.43,14.23,13.43,14.23-12,17.07-3.62,33.14,27,15.3,28.22,33.48C724.33,553.75,725.36,477.7,701.51,411.57Z" fill="#fcd2d9"></path>
  <path d="M722.21,522.35a.61.61,0,0,0,0-.27,455.45,455.45,0,0,0-19-100c0-.09-.18,0-.15,0q5.81,21.81,10.28,43.85a21.48,21.48,0,0,0-9.34-5.21c-.08,0-.1.07,0,.1a24.71,24.71,0,0,1,9.64,6.44c.58,2.85,1.14,5.69,1.67,8.65-4.37-4.89-10.45-7.31-16.52-9.61-.09,0-.13.1,0,.12,6.33,2.58,12.62,5.89,16.91,11.38q2.24,12.39,3.93,24.83A23.73,23.73,0,0,0,708,496c-.13,0-.21.17-.07.22a24.65,24.65,0,0,1,11.84,7.58h.08c.39,2.92.76,5.85,1.1,8.76a30.44,30.44,0,0,0-8.18-4.93c-.07,0-.12.1,0,.12a28.14,28.14,0,0,1,8.19,5.44H721c.32,2.84.64,5.58.93,8.36a39.85,39.85,0,0,0-16.6-11.86.11.11,0,0,0-.14.06.11.11,0,0,0,.07.14,43.3,43.3,0,0,1,16.36,12.6.36.36,0,0,0,.41.13q.65,6.4,1.12,12.8s.1.08.1,0C722.86,531.13,722.63,526.73,722.21,522.35Z" fill="#3f4347"></path>
  <path d="M706.47,455.85a24.53,24.53,0,0,0-11.76-3.68.09.09,0,0,0-.08.08.08.08,0,0,0,.08.07,46.75,46.75,0,0,1,11.63,3.8C706.49,456.19,706.61,455.94,706.47,455.85Z" fill="#3f4347"></path>
  <path d="M708.85,508.47a24.83,24.83,0,0,0-8.84-3c-.11,0-.11.15,0,.17a33.51,33.51,0,0,1,8.74,3.06C708.86,508.72,709,508.53,708.85,508.47Z" fill="#3f4347"></path>
  <path d="M777.29,473.77a133.56,133.56,0,0,0-22.66,19.8,81.41,81.41,0,0,0-15.89,27A201.46,201.46,0,0,0,726.9,585a155.41,155.41,0,0,0,3.49,36.24.34.34,0,0,0,.4.28.34.34,0,0,0,.28-.4,202.54,202.54,0,0,1,.35-63.37c3.36-20.57,8.65-42.93,21.71-59.65,7.12-9.09,16-16.24,24.77-23.64C778.36,474.07,777.77,473.43,777.29,473.77Z" fill="#fcd2d9"></path>
  <path d="M729.75,570.2a121.44,121.44,0,0,1,16.53-21.12c9.78-9.8,18-16.75,19.32-23.23s-9.82-11.25-9.82-11.25S769.34,517,773,511.34s5.5-38.64,5.5-38.64-24.61,17.62-36.12,42.3S729.75,570.2,729.75,570.2Z" fill="#fcd2d9"></path>
  <path d="M770,481.15c-10.37,10.2-20.81,21.06-26.93,34.45a133.47,133.47,0,0,0-5.44,14.22h0c-.32,1-.64,1.95-.94,2.93a.22.22,0,0,0,0,.16,280.76,280.76,0,0,0-7,30.44s.1.1.12,0c1-5.13,2.23-10.32,3.54-15.5h.14A21.63,21.63,0,0,1,740,546.2c.15,0,.13-.27,0-.26a24.08,24.08,0,0,0-6.4,1.17c1.2-4.67,2.49-9.32,4-13.92a68.6,68.6,0,0,1,14.62-1.9v-.09a55.09,55.09,0,0,0-14.37,1.23c.25-.79.52-1.57.79-2.35a72.68,72.68,0,0,1,9.73-1.65m0-.12a47.86,47.86,0,0,0-9.54,1.17c1.36-4,2.85-7.88,4.41-11.69a68.44,68.44,0,0,1,4.66-9,58.49,58.49,0,0,1,7.89-1.42c.07,0,.07-.13,0-.13a21.5,21.5,0,0,0-7.48.81q1.95-3.13,4.11-6.13h0c5.54-1.23,11.14-2.36,16.8-1.3a.09.09,0,0,0,0-.17c-5.38-1.42-10.72-.6-16.09.46.58-.78,1.18-1.55,1.79-2.31a36.59,36.59,0,0,1,10.33-1.62.06.06,0,1,0,0-.11,26.53,26.53,0,0,0-9.63.85c4.57-5.69,9.62-11,14.61-16.3.3-.32.13-.4-.13-.22Z" fill="#3f4347"></path>
  <path d="M769.76,503.62a22.32,22.32,0,0,0-4.9-.17.18.18,0,0,0-.13.22.17.17,0,0,0,.13.13c1.62,0,3.25-.08,4.88,0a.1.1,0,0,0,.07-.12A.07.07,0,0,0,769.76,503.62Z" fill="#3f4347"></path>
  <path d="M752,535.58a22.52,22.52,0,0,0-7.6,1.53v.11c2.52-.6,5.05-.84,7.6-1.27a.18.18,0,0,0,.18-.18A.19.19,0,0,0,752,535.58Z" fill="#3f4347"></path>
  <path d="M746.69,524.54a16.66,16.66,0,0,0-3.23.29c-.1,0-.1.2,0,.2a16.62,16.62,0,0,0,3.23-.16C746.89,524.84,746.89,524.54,746.69,524.54Z" fill="#3f4347"></path>
  <path d="M657.49,508.74a111.85,111.85,0,0,1,22.92,10.8,68.41,68.41,0,0,1,19.09,18.13,169.61,169.61,0,0,1,24.55,49.44,132.15,132.15,0,0,1,5.57,30.15.3.3,0,0,1-.36.22.3.3,0,0,1-.23-.22A171.3,171.3,0,0,0,714.1,566c-7.49-15.86-16.92-32.72-31.3-43.25-7.87-5.69-16.7-9.46-25.51-13.41C656.69,509.22,657,508.58,657.49,508.74Z" fill="#fcd2d9"></path>
  <path d="M718.24,575.79A102.07,102.07,0,0,0,700,562.53c-10.2-5.69-18.49-9.39-21-14.34s5.35-11.38,5.35-11.38-10.41,5.09-14.72,1.35-13.39-30-13.39-30,24,8.53,39,25.87S718.24,575.79,718.24,575.79Z" fill="#fcd2d9"></path>
  <path d="M716.94,570.38c-12-22.56-28.05-43-50-56.43h0A109.77,109.77,0,0,1,683,526.54a25.43,25.43,0,0,0-12.91,2.71.08.08,0,0,0,0,.12.09.09,0,0,0,.07,0,35.19,35.19,0,0,1,13.28-2.25h.15c.78.74,1.55,1.49,2.32,2.25a38.94,38.94,0,0,0-6.9.92m0,.09a35.55,35.55,0,0,1,7.28-.6,149.32,149.32,0,0,1,11.38,12.87,11.54,11.54,0,0,0-4.82.34.1.1,0,0,0-.06.13.09.09,0,0,0,.06.06,24.62,24.62,0,0,1,5.15-.07c.67.84,1.32,1.66,2,2.52a46,46,0,0,0-14.59,1.42v.11a58.36,58.36,0,0,1,15-1c.62.81,1.2,1.65,1.8,2.48a31.33,31.33,0,0,0-8.68,1c-.12,0-.09.2,0,.17a33.48,33.48,0,0,1,9-.69c2.59,3.55,5.06,7.19,7.44,10.88a8.06,8.06,0,0,0-3.81.23m0,.1a16.66,16.66,0,0,1,4.11.2c2.15,3.32,4.27,6.7,6.2,10.08.27.24.74,0,.54-.27Z" fill="#3f4347"></path>
  <path d="M698.29,551.67a18.16,18.16,0,0,0-7,.86m0,.1a52,52,0,0,1,6.94-.71c.2,0,.2-.23,0-.25Z" fill="#3f4347"></path>
  <path d="M677.32,524.17a12.81,12.81,0,0,0-3.21.19.09.09,0,0,0-.1.1.1.1,0,0,0,.1.1c1-.12,2.09-.07,3.15-.1a.16.16,0,0,0,.18-.12A.16.16,0,0,0,677.32,524.17Z" fill="#3f4347"></path>
  <polygon points="749.22 650.38 694.99 650.38 702.72 593.73 704.69 579.22 739.5 579.22 741.48 593.73 749.22 650.38" fill="#3f4347"></polygon>
  <polygon points="741.48 593.73 702.72 593.73 704.69 579.22 739.5 579.22 741.48 593.73" fill="#2e3135"></polygon>
  <rect x="699.71" y="574.17" width="44.77" height="12.31" fill="#3f4347"></rect>
  <g opacity="0.5">
    <rect x="82.08" y="39.57" width="153.28" height="170.09" fill="#fff"></rect>
  </g>
  <path d="M156,77.05s-24.83-14.41-37.37,3.47c0,0-8,11.21,3.47,35.5,0,0,1.91,3.83.61,13.39a108.3,108.3,0,0,0-1.08,16.29c.19,11.36,2.14,27.18,11,33.22a4.17,4.17,0,0,0,5.52-.63c1.36-1.61,2.81-4.62,3.73-10.22,0,0,3.47-24.29,14.15-27.23,0,0,8.54-.8,14.14,28,0,0,1.57,12.33,6.56,12.54a3.06,3.06,0,0,0,2.16-.88c3.17-3,15.75-17,11.3-49.56,0,0-2.12-7.21.94-17.62,0,0,6.75-13.26,5.31-25.16a18.6,18.6,0,0,0-17.71-16.06A47.88,47.88,0,0,0,156,77.05Z" fill="#fff"></path>
  <rect x="183.79" y="120.59" width="30.96" height="1" fill="#e6e7e8"></rect>
  <rect x="102.34" y="120.59" width="30.96" height="1" fill="#e6e7e8"></rect>
  <polygon points="184.21 79.44 183.36 78.92 196.36 57.6 216.08 57.6 216.08 58.6 196.92 58.6 184.21 79.44" fill="#e6e7e8"></polygon>
  <polygon points="132.87 79.52 120.17 58.68 101 58.68 101 57.68 120.73 57.68 133.72 79 132.87 79.52" fill="#e6e7e8"></polygon>
  <polygon points="216.08 191.25 188.54 191.25 177.46 168.28 178.36 167.85 189.17 190.25 216.08 190.25 216.08 191.25" fill="#e6e7e8"></polygon>
  <polygon points="128.03 190.32 100.49 190.32 100.49 189.32 127.4 189.32 138.21 166.91 139.11 167.35 128.03 190.32" fill="#e6e7e8"></polygon>
  <circle cx="220.62" cy="121.62" r="5.87" fill="#e6e7e8"></circle>
  <circle cx="220.62" cy="190.76" r="5.87" fill="#e6e7e8"></circle>
  <circle cx="220.62" cy="58.1" r="5.87" fill="#e6e7e8"></circle>
  <circle cx="99.27" cy="122.75" r="5.87" fill="#e6e7e8"></circle>
  <circle cx="100.49" cy="189.82" r="5.87" fill="#e6e7e8"></circle>
  <circle cx="99.27" cy="59.23" r="5.87" fill="#e6e7e8"></circle>
</svg>
